<svg width="20" height="20" viewBox="0 0 20 20" fill="none" xmlns="http://www.w3.org/2000/svg">
<path d="M18.3327 6.19169V11.1917C18.3327 12.4417 17.916 13.4834 17.1827 14.2167C16.4577 14.9417 15.416 15.3584 14.166 15.3584V17.1334C14.166 17.8 13.4244 18.2001 12.8744 17.8334L9.16602 15.3584H7.39935C7.46602 15.1084 7.49935 14.85 7.49935 14.5834C7.49935 13.7334 7.17435 12.95 6.64102 12.3584C6.04102 11.675 5.14935 11.25 4.16602 11.25C3.23268 11.25 2.38269 11.6334 1.77435 12.2584C1.69935 11.925 1.66602 11.5667 1.66602 11.1917V6.19169C1.66602 3.69169 3.33268 2.02502 5.83268 2.02502H14.166C16.666 2.02502 18.3327 3.69169 18.3327 6.19169Z" stroke="#156AFF" stroke-width="1.5" stroke-miterlimit="10" stroke-linecap="round" stroke-linejoin="round"/>
<path d="M7.50065 14.5833C7.50065 15.2083 7.32566 15.8 7.01733 16.3C6.84233 16.6 6.61732 16.8667 6.35899 17.0833C5.77566 17.6083 5.00898 17.9167 4.16732 17.9167C2.95065 17.9167 1.89231 17.2667 1.31731 16.3C1.00897 15.8 0.833984 15.2083 0.833984 14.5833C0.833984 13.5333 1.31732 12.5917 2.08398 11.9833C2.65898 11.525 3.38398 11.25 4.16732 11.25C6.00898 11.25 7.50065 12.7417 7.50065 14.5833Z" stroke="#156AFF" stroke-width="1.5" stroke-miterlimit="10" stroke-linecap="round" stroke-linejoin="round"/>
<path d="M2.86719 14.5833L3.69218 15.4083L5.46718 13.7667" stroke="#156AFF" stroke-width="1.5" stroke-linecap="round" stroke-linejoin="round"/>
<path d="M7.08398 8.75H12.9173" stroke="#156AFF" stroke-width="1.5" stroke-miterlimit="10" stroke-linecap="round" stroke-linejoin="round"/>
</svg>
