<svg width="116" height="116" viewBox="0 0 116 116" fill="none" xmlns="http://www.w3.org/2000/svg">
<path d="M21.6023 79.0559C9.83274 59.0947 16.4734 33.3718 36.4346 21.6023C56.3959 9.83277 82.1187 16.4735 93.8882 36.4347C105.658 56.3959 99.0171 82.1187 79.0559 93.8883C59.0946 105.658 33.3718 99.0171 21.6023 79.0559Z" fill="#E3E5E8" stroke="#E3E5E8" stroke-width="0.425968"/>
<path d="M33.1814 75.4663L33.8533 74.8818L36.3344 77.7339L31.3981 82.0283L30.7002 81.2261L34.9647 77.5163L33.1814 75.4663Z" fill="black"/>
<path d="M29.8454 73.8097C29.7071 73.8969 29.5919 73.9982 29.4999 74.1135C29.4037 74.2279 29.3362 74.3509 29.2976 74.4827C29.2564 74.6162 29.2478 74.7559 29.2718 74.9019C29.2917 75.0469 29.3484 75.1938 29.4421 75.3424C29.6312 75.6421 29.8656 75.8238 30.1456 75.8872C30.4255 75.9506 30.735 75.9076 31.0741 75.7583L29.8454 73.8097ZM31.596 75.4614C31.8124 75.3106 31.9841 75.154 32.1109 74.9917C32.2352 74.831 32.3204 74.668 32.3666 74.5028C32.4112 74.335 32.4176 74.1663 32.3858 73.9965C32.3498 73.8259 32.2785 73.656 32.1719 73.4869C32.0701 73.3254 31.9641 73.1971 31.8539 73.1019C31.7411 73.0082 31.6355 72.9316 31.537 72.8719C31.436 72.8139 31.3481 72.7654 31.2735 72.7266C31.1963 72.6893 31.1415 72.6451 31.1092 72.5938C31.0672 72.5272 31.0605 72.4598 31.0891 72.3916L31.2449 71.9657C31.4216 71.9904 31.5885 72.0391 31.7454 72.1121C31.9024 72.185 32.0502 72.2744 32.1886 72.3805C32.3246 72.4881 32.4488 72.6085 32.5614 72.7417C32.6766 72.8732 32.7778 73.0081 32.865 73.1465C33.0363 73.4181 33.1506 73.6987 33.2079 73.9884C33.2611 74.2772 33.2534 74.5632 33.1848 74.8463C33.1147 75.1269 32.9796 75.3983 32.7797 75.6604C32.5781 75.92 32.3069 76.1573 31.9661 76.3722C31.6945 76.5434 31.4142 76.6611 31.1252 76.7252C30.8345 76.7867 30.552 76.793 30.2776 76.744C30.0015 76.6924 29.7417 76.5841 29.498 76.4191C29.2501 76.2531 29.0348 76.0253 28.8523 75.7358C28.7004 75.4949 28.5995 75.247 28.5497 74.9919C28.4973 74.7385 28.4999 74.4898 28.5574 74.2458C28.6148 74.0019 28.7279 73.7695 28.8965 73.5485C29.061 73.3266 29.2829 73.1277 29.5622 72.9516C29.6903 72.8708 29.785 72.8307 29.8463 72.8315C29.9077 72.8322 29.9618 72.8697 30.0086 72.944L31.596 75.4614Z" fill="black"/>
<path d="M30.8788 69.3895C31.0352 69.741 31.0578 70.0559 30.9463 70.3343C30.8309 70.6112 30.5933 70.8297 30.2335 70.9899L27.768 72.0878L27.975 72.5527C27.9972 72.6025 28.0011 72.6522 27.9867 72.7017C27.9695 72.7524 27.9291 72.792 27.8654 72.8203L27.5043 72.9811L27.0997 72.3406L25.7884 72.6908C25.7352 72.6979 25.6873 72.691 25.6449 72.6701C25.5997 72.6505 25.5647 72.613 25.5401 72.5576L25.3368 72.101L26.7273 71.4819L26.2042 70.3072L26.8476 70.0207L27.3706 71.1954L29.7739 70.1252C29.9261 70.0575 30.0257 69.9684 30.0727 69.8579C30.1196 69.7475 30.1154 69.63 30.06 69.5055C30.0292 69.4363 29.9944 69.3805 29.9556 69.3381C29.914 69.2969 29.8756 69.2626 29.8402 69.2353C29.802 69.2091 29.7691 69.1873 29.7414 69.1698C29.7097 69.1508 29.6883 69.1288 29.6772 69.1039C29.655 69.0541 29.6649 69.0016 29.7066 68.9466L30.0242 68.4868C30.2075 68.571 30.3743 68.6924 30.5245 68.8509C30.672 69.0108 30.79 69.1903 30.8788 69.3895Z" fill="black"/>
<path d="M23.2811 69.2462C23.4556 69.0434 23.6542 68.8788 23.8769 68.7525C24.0967 68.6271 24.3292 68.5438 24.5742 68.5026C24.8164 68.4623 25.0641 68.4666 25.3171 68.5154C25.5692 68.5614 25.812 68.6552 26.0453 68.797L25.9662 69.1451C25.9511 69.2045 25.9187 69.2411 25.8689 69.2547C25.8153 69.2664 25.7693 69.2627 25.731 69.2437C25.6283 69.2048 25.5061 69.179 25.3642 69.1661C25.2224 69.1533 25.0754 69.163 24.9233 69.1952C24.7672 69.2255 24.6123 69.2826 24.4584 69.3666C24.3035 69.4476 24.1622 69.5641 24.0345 69.716C23.9754 69.7871 23.9152 69.8218 23.8538 69.8201C23.7925 69.8185 23.7397 69.7899 23.6955 69.7345L23.2811 69.2462Z" fill="black"/>
<path d="M25.1865 63.9715C25.2331 63.986 25.2686 64.006 25.2929 64.0317C25.3173 64.0573 25.3344 64.0923 25.3442 64.1366C25.3554 64.1869 25.3528 64.2449 25.3363 64.3106C25.317 64.377 25.2969 64.4543 25.2762 64.5427C25.2555 64.6311 25.2426 64.7333 25.2373 64.8493C25.2285 64.9629 25.2401 65.0922 25.2723 65.2371C25.2986 65.3554 25.3374 65.46 25.3887 65.551C25.4363 65.6397 25.4943 65.7122 25.5626 65.7684C25.6274 65.8222 25.6992 65.859 25.778 65.8787C25.8539 65.8991 25.9318 65.9004 26.0116 65.8827C26.1181 65.859 26.1995 65.8068 26.2561 65.7259C26.3126 65.6451 26.3556 65.5456 26.3852 65.4273C26.4118 65.3096 26.4306 65.1782 26.4418 65.033C26.453 64.8878 26.4664 64.7389 26.4822 64.5865C26.4979 64.434 26.5218 64.2829 26.5536 64.1331C26.5855 63.9833 26.6354 63.8449 26.7034 63.7181C26.7684 63.5919 26.8588 63.4819 26.9744 63.3879C27.0871 63.2946 27.2351 63.2276 27.4185 63.1868C27.6314 63.1395 27.8365 63.1342 28.034 63.171C28.2315 63.2078 28.4132 63.2853 28.5791 63.4036C28.745 63.5218 28.8896 63.6836 29.0128 63.889C29.1354 64.0914 29.2282 64.3345 29.2913 64.6183C29.3261 64.7751 29.3452 64.9306 29.3485 65.085C29.3541 65.2359 29.348 65.383 29.3303 65.5266C29.309 65.6679 29.2771 65.8038 29.2347 65.9342C29.1917 66.0617 29.1401 66.1786 29.08 66.2851L28.667 66.1442C28.6167 66.1274 28.5755 66.1025 28.5433 66.0693C28.5075 66.0338 28.483 65.9865 28.4699 65.9273C28.456 65.8653 28.4633 65.8 28.4915 65.7317C28.5162 65.6611 28.5433 65.5806 28.5728 65.4902C28.6017 65.3969 28.6241 65.288 28.6398 65.1635C28.6526 65.0396 28.64 64.8919 28.6018 64.7204C28.5703 64.5785 28.5268 64.4594 28.4712 64.3631C28.4127 64.2675 28.3464 64.1923 28.2721 64.1374C28.1978 64.0825 28.1201 64.0471 28.039 64.031C27.9549 64.0155 27.8699 64.0173 27.7842 64.0364C27.6689 64.062 27.5815 64.1156 27.522 64.1971C27.4626 64.2786 27.4184 64.3799 27.3895 64.5012C27.3599 64.6195 27.3399 64.7527 27.3294 64.9009C27.3182 65.0461 27.3048 65.1949 27.289 65.3474C27.2732 65.4998 27.2498 65.6524 27.2186 65.8052C27.1867 65.955 27.1356 66.0952 27.0653 66.2256C26.9914 66.3537 26.8937 66.4655 26.7721 66.5608C26.6476 66.6567 26.4863 66.7267 26.2882 66.7707C26.1078 66.8108 25.9284 66.8135 25.75 66.7787C25.5709 66.7409 25.4039 66.6663 25.2488 66.5549C25.093 66.4406 24.957 66.2893 24.8407 66.1011C24.7207 65.9105 24.6309 65.6807 24.571 65.4116C24.5033 65.1071 24.4907 64.8197 24.533 64.5497C24.5754 64.2796 24.6621 64.0416 24.7932 63.8355L25.1865 63.9715Z" fill="black"/>
<path d="M24.7801 55.88C24.8189 55.911 24.8486 55.9404 24.8693 55.968C24.89 55.9956 24.8999 56.0352 24.899 56.0867C24.8981 56.1382 24.8789 56.1924 24.8415 56.2493C24.8042 56.3031 24.7636 56.369 24.7198 56.447C24.673 56.5219 24.6304 56.6135 24.5921 56.7219C24.5537 56.8303 24.5331 56.9662 24.5301 57.1298C24.5263 57.3418 24.5608 57.5287 24.6335 57.6906C24.7064 57.8495 24.813 57.9847 24.9534 58.0963C25.0908 58.2048 25.2604 58.2882 25.4623 58.3464C25.6613 58.4015 25.8865 58.4314 26.1378 58.4359C26.3983 58.4407 26.6305 58.4161 26.8345 58.3623C27.0384 58.3084 27.211 58.2297 27.3523 58.1263C27.4936 58.0198 27.6019 57.8915 27.6774 57.7414C27.7529 57.5882 27.7924 57.4162 27.7958 57.2254C27.7992 57.0377 27.7793 56.8843 27.736 56.7654C27.6927 56.6464 27.6445 56.5471 27.5915 56.4674C27.5384 56.3876 27.4896 56.3201 27.4452 56.2647C27.4008 56.2064 27.3792 56.1454 27.3803 56.0818C27.3818 56.003 27.4132 55.943 27.4745 55.9017L27.8384 55.6311C27.9727 55.7457 28.0855 55.8719 28.1769 56.0099C28.2683 56.1479 28.3429 56.2932 28.4008 56.4457C28.4556 56.5982 28.4936 56.7564 28.5148 56.9204C28.5391 57.0844 28.5497 57.2497 28.5467 57.4163C28.5415 57.704 28.4836 57.9726 28.373 58.2221C28.2595 58.4684 28.0996 58.6837 27.8932 58.8677C27.6839 59.0487 27.4314 59.1911 27.1356 59.2948C26.8369 59.3954 26.4983 59.4423 26.1197 59.4354C25.7774 59.4292 25.4618 59.375 25.1729 59.2728C24.8808 59.1705 24.6305 59.0251 24.4219 58.8365C24.2133 58.6449 24.0524 58.4102 23.9393 58.1324C23.8232 57.8546 23.7684 57.5355 23.7749 57.1751C23.781 56.8389 23.8409 56.5446 23.9546 56.2922C24.0683 56.0368 24.2269 55.8109 24.4304 55.6147L24.7801 55.88Z" fill="black"/>
<path d="M24.2543 52.4619C24.3126 52.1246 24.4204 51.8297 24.5778 51.5771C24.7357 51.3216 24.9326 51.1159 25.1686 50.9599C25.4051 50.801 25.6772 50.6943 25.9848 50.6398C26.2923 50.5854 26.6267 50.5894 26.9879 50.6518C27.3491 50.7142 27.6654 50.8227 27.9369 50.9772C28.2083 51.1317 28.4303 51.3238 28.6027 51.5534C28.7727 51.7795 28.8891 52.0394 28.9521 52.3331C29.0156 52.6238 29.0182 52.9378 28.9599 53.2751C28.9011 53.6153 28.7928 53.9132 28.6349 54.1688C28.4775 54.4213 28.2806 54.627 28.0441 54.786C27.8046 54.9444 27.5311 55.0508 27.2235 55.1053C26.9159 55.1597 26.5815 55.1557 26.2203 55.0933C25.8592 55.0309 25.5429 54.9224 25.2714 54.7679C24.9999 54.6134 24.7794 54.4216 24.61 54.1925C24.4406 53.9634 24.3241 53.7035 24.2606 53.4128C24.1976 53.1191 24.1955 52.8021 24.2543 52.4619ZM28.2078 53.1451C28.2789 52.7332 28.1945 52.4035 27.9545 52.156C27.712 51.9051 27.334 51.7353 26.8206 51.6466C26.3072 51.5578 25.8942 51.591 25.5815 51.746C25.2664 51.8975 25.0732 52.1792 25.002 52.5911C24.9298 53.009 25.0164 53.3436 25.2619 53.5951C25.5045 53.846 25.8824 54.0159 26.3958 54.1046C26.9092 54.1933 27.3222 54.1602 27.6349 54.0052C27.9446 53.8497 28.1355 53.563 28.2078 53.1451Z" fill="black"/>
<path d="M23.3652 47.5988L29.8044 49.537L29.5229 50.4725L23.0836 48.5342L23.3652 47.5988Z" fill="black"/>
<path d="M24.1954 45.2626L30.4821 47.6496L30.1353 48.5629L23.8486 46.1759L24.1954 45.2626Z" fill="black"/>
<path d="M30.1032 43.7029C29.9522 44.017 29.8412 44.2906 29.7704 44.5236C29.6968 44.7552 29.6564 44.953 29.6492 45.1168C29.6393 45.2792 29.6605 45.4117 29.7127 45.5143C29.7663 45.6142 29.8427 45.6902 29.942 45.7423C30.0386 45.7929 30.1295 45.8218 30.2147 45.8288C30.2987 45.8318 30.3775 45.8184 30.4512 45.7887C30.5237 45.7548 30.5896 45.7073 30.6491 45.6461C30.7072 45.5809 30.7595 45.504 30.806 45.4154C30.9241 45.1901 30.9838 44.9751 30.985 44.7706C30.985 44.5619 30.9446 44.3389 30.8638 44.1016L30.1032 43.7029ZM27.1622 45.0851C26.9736 44.3945 27.0474 43.7287 27.3836 43.0875C27.5074 42.8514 27.656 42.6626 27.8294 42.5209C28.0016 42.3752 28.1898 42.2772 28.394 42.227C28.5996 42.174 28.8159 42.166 29.0428 42.2029C29.2684 42.2357 29.4979 42.3133 29.7313 42.4356L32.3389 43.8028L32.1364 44.1891C32.0928 44.2723 32.0477 44.329 32.001 44.3593C31.9517 44.3881 31.8804 44.3969 31.7871 44.3856L31.4088 44.295C31.4478 44.4489 31.4782 44.5965 31.4998 44.7378C31.5188 44.8777 31.525 45.016 31.5183 45.1528C31.513 45.2868 31.4894 45.4232 31.4474 45.5619C31.4095 45.6994 31.3512 45.8433 31.2724 45.9935C31.1852 46.1598 31.0808 46.3035 30.9593 46.4244C30.8391 46.5427 30.706 46.6302 30.5599 46.687C30.4112 46.7424 30.2522 46.7651 30.0831 46.7551C29.9153 46.7424 29.7389 46.6875 29.5537 46.5904C29.3955 46.5074 29.263 46.385 29.1564 46.223C29.0512 46.0584 28.9902 45.8486 28.9734 45.5935C28.9554 45.3344 28.9904 45.0262 29.0786 44.6688C29.1682 44.3088 29.33 43.8925 29.564 43.4201L29.2904 43.2767C28.9953 43.1219 28.7422 43.0696 28.5312 43.1198C28.3203 43.1699 28.1508 43.317 28.0228 43.5612C27.9356 43.7275 27.8839 43.8782 27.8677 44.0134C27.8489 44.1472 27.8418 44.2683 27.8465 44.3768C27.8512 44.4853 27.8581 44.583 27.8673 44.6699C27.8738 44.7554 27.858 44.8343 27.8201 44.9067C27.7891 44.9658 27.7476 45.009 27.6956 45.0365C27.6423 45.0598 27.5858 45.073 27.5262 45.0759L27.1622 45.0851Z" fill="black"/>
<path d="M32.6436 41.2303C32.866 41.2274 33.0545 41.1838 33.2093 41.0995C33.3634 41.0109 33.498 40.8905 33.613 40.7382C33.8448 40.4312 33.9143 40.1079 33.8215 39.7683C33.7287 39.4288 33.449 39.0828 32.9824 38.7306C32.557 38.4093 32.1898 38.2497 31.8808 38.2517C31.5736 38.2514 31.316 38.389 31.1079 38.6645C30.9637 38.8555 30.8813 39.0552 30.8606 39.2635C30.8394 39.4676 30.862 39.6915 30.9285 39.9353L32.6436 41.2303ZM30.3628 39.5082C30.311 39.2299 30.3067 38.9591 30.3499 38.6957C30.3932 38.4323 30.5061 38.1798 30.6886 37.938C30.8511 37.7229 31.0394 37.5614 31.2536 37.4537C31.4672 37.3417 31.6982 37.2846 31.9466 37.2823C32.195 37.2801 32.4562 37.3312 32.7303 37.4357C33.002 37.5384 33.2781 37.6956 33.5585 37.9073C33.8583 38.1336 34.1031 38.3773 34.2931 38.6385C34.4825 38.8953 34.6135 39.1593 34.6859 39.4303C34.7559 39.6995 34.7653 39.9685 34.7142 40.2374C34.6606 40.5044 34.5426 40.7587 34.36 41.0005C34.2706 41.1189 34.1773 41.2174 34.0801 41.2958C33.9853 41.3761 33.8852 41.4409 33.7796 41.4902C33.674 41.5396 33.5646 41.5765 33.4512 41.601C33.3396 41.623 33.2215 41.6363 33.0967 41.6407L33.3585 41.8896C33.405 41.9437 33.4284 41.9956 33.4289 42.0453C33.4293 42.0949 33.4085 42.1476 33.3666 42.2032L32.9833 42.7108L27.6166 38.6588L28.2052 37.8791L30.3628 39.5082Z" fill="black"/>
<path d="M34.1746 34.1275C34.424 33.893 34.6875 33.7222 34.9651 33.6151C35.2449 33.5059 35.526 33.4599 35.8083 33.4772C36.0928 33.4924 36.3744 33.5708 36.6529 33.7122C36.9314 33.8537 37.1961 34.0579 37.4472 34.325C37.6982 34.592 37.8857 34.8689 38.0097 35.1556C38.1338 35.4423 38.1956 35.7292 38.1953 36.0164C38.1951 36.2992 38.1319 36.5769 38.0056 36.8495C37.8816 37.1199 37.6948 37.3724 37.4454 37.6068C37.1939 37.8433 36.9281 38.0162 36.6483 38.1254C36.3707 38.2326 36.0897 38.2785 35.8051 38.2633C35.5185 38.2459 35.236 38.1665 34.9575 38.025C34.679 37.8835 34.4142 37.6793 34.1631 37.4122C33.9121 37.1452 33.7246 36.8683 33.6006 36.5816C33.4766 36.2949 33.4157 36.0091 33.4181 35.7242C33.4205 35.4392 33.4837 35.1615 33.6078 34.8911C33.7341 34.6185 33.923 34.364 34.1746 34.1275ZM36.9226 37.0507C37.2272 36.7643 37.358 36.4502 37.3149 36.1081C37.2721 35.7618 37.0722 35.3988 36.7153 35.0192C36.3585 34.6396 36.0085 34.4177 35.6655 34.3535C35.3226 34.2851 34.9989 34.394 34.6943 34.6803C34.3853 34.9708 34.2533 35.2903 34.2983 35.6388C34.3412 35.9852 34.541 36.3481 34.8979 36.7278C35.2547 37.1074 35.6047 37.3292 35.9477 37.3934C36.2887 37.4554 36.6136 37.3411 36.9226 37.0507Z" fill="black"/>
<path d="M38.0669 32.1309C38.017 31.8069 38.0285 31.5175 38.1013 31.2628C38.1724 31.0056 38.3257 30.7943 38.5612 30.6289C38.643 30.5715 38.7268 30.5274 38.8126 30.4968C38.8967 30.4636 38.9803 30.4457 39.0634 30.4428L39.4307 31.0843C39.4503 31.1335 39.4551 31.1745 39.445 31.2075C39.4356 31.2363 39.4136 31.2629 39.3789 31.2873C39.3417 31.3134 39.284 31.3446 39.2059 31.381C39.126 31.4149 39.0477 31.4588 38.9709 31.5127C38.8593 31.5911 38.7715 31.6768 38.7073 31.77C38.6457 31.8614 38.6019 31.9624 38.576 32.0732C38.5526 32.1821 38.5462 32.2995 38.5568 32.4253C38.5674 32.5511 38.5905 32.6867 38.6259 32.8321L40.2814 35.1895L39.482 35.7509L36.8185 31.9582L37.2833 31.6318C37.3676 31.5726 37.4372 31.5478 37.492 31.5574C37.5452 31.5645 37.6049 31.6021 37.6713 31.6703L38.0669 32.1309Z" fill="black"/>
<path d="M43.449 30.9512C43.1435 31.1191 42.8942 31.2772 42.7011 31.4257C42.5067 31.5715 42.3589 31.7089 42.2578 31.838C42.1554 31.9644 42.0956 32.0846 42.0785 32.1984C42.0641 32.3109 42.0821 32.4172 42.1326 32.5172C42.1818 32.6146 42.239 32.6909 42.3043 32.7461C42.3709 32.7973 42.4428 32.8323 42.5201 32.8509C42.5987 32.8655 42.68 32.8651 42.764 32.8499C42.8492 32.8306 42.9365 32.7984 43.0257 32.7533C43.2528 32.6385 43.4263 32.4983 43.5462 32.3325C43.6674 32.1627 43.764 31.9577 43.8362 31.7177L43.449 30.9512ZM40.2522 30.3671C40.5 29.6955 40.947 29.1965 41.5932 28.87C41.8311 28.7498 42.0618 28.6825 42.2853 28.668C42.5101 28.6494 42.7202 28.679 42.9156 28.7568C43.1137 28.8332 43.2943 28.9523 43.4576 29.1142C43.6221 29.272 43.7638 29.4685 43.8827 29.7037L45.2104 32.3317L44.821 32.5284C44.7372 32.5707 44.6675 32.5907 44.612 32.5882C44.5551 32.583 44.4919 32.5487 44.4226 32.4853L44.1674 32.1918C44.1097 32.3397 44.0487 32.4774 43.9842 32.605C43.9183 32.7299 43.8429 32.8461 43.758 32.9534C43.6758 33.0594 43.5774 33.1567 43.4626 33.2452C43.3519 33.3351 43.2208 33.4183 43.0694 33.4948C42.9018 33.5795 42.7334 33.6357 42.5641 33.6635C42.3976 33.6899 42.2384 33.6838 42.0865 33.6452C41.9333 33.6038 41.7907 33.5299 41.6589 33.4234C41.5298 33.3156 41.4181 33.1684 41.3238 32.9819C41.2432 32.8223 41.2066 32.6457 41.2139 32.452C41.2239 32.2569 41.2962 32.0506 41.4308 31.8333C41.5667 31.612 41.7744 31.3815 42.0538 31.1419C42.3359 30.9009 42.7094 30.6562 43.1744 30.4077L43.0351 30.132C42.8848 29.8346 42.7093 29.645 42.5085 29.5632C42.3076 29.4814 42.0842 29.5026 41.8382 29.6269C41.6705 29.7116 41.5409 29.8043 41.4492 29.9049C41.3561 30.0028 41.28 30.0973 41.2207 30.1883C41.1615 30.2793 41.1104 30.3628 41.0674 30.4389C41.023 30.5122 40.9643 30.5673 40.8913 30.6042C40.8318 30.6342 40.7729 30.6453 40.7146 30.6374C40.6577 30.6255 40.6041 30.6033 40.5538 30.571L40.2522 30.3671Z" fill="black"/>
<path d="M47.877 31.421C47.5125 31.5441 47.1968 31.5372 46.93 31.4004C46.6651 31.2596 46.4696 31.0027 46.3436 30.6297L45.48 28.0726L44.9979 28.2355C44.9462 28.2529 44.8964 28.2521 44.8484 28.2332C44.7995 28.2113 44.7639 28.1674 44.7416 28.1014L44.6151 27.7269L45.2905 27.3837L45.0639 26.0454C45.0618 25.9918 45.0731 25.9448 45.0978 25.9045C45.1216 25.8613 45.1622 25.83 45.2196 25.8106L45.6931 25.6507L46.1802 27.0928L47.3984 26.6814L47.6238 27.3486L46.4055 27.76L47.2473 30.2525C47.3006 30.4103 47.3801 30.5178 47.4857 30.5749C47.5913 30.6319 47.7086 30.6386 47.8378 30.595C47.9095 30.5708 47.9683 30.5413 48.0142 30.5067C48.059 30.4691 48.0967 30.434 48.1273 30.4013C48.1568 30.3658 48.1816 30.335 48.2016 30.3091C48.2235 30.2793 48.2474 30.26 48.2732 30.2513C48.3249 30.2339 48.3762 30.2485 48.4271 30.2953L48.8553 30.6542C48.7545 30.8289 48.6181 30.9837 48.4462 31.1185C48.2733 31.2504 48.0836 31.3513 47.877 31.421Z" fill="black"/>
<path d="M52.0184 27.4392C51.9888 27.2783 51.9375 27.1337 51.8646 27.0055C51.7941 26.8737 51.7049 26.7654 51.5969 26.6806C51.4883 26.5928 51.3618 26.5329 51.2173 26.501C51.0753 26.4655 50.9178 26.4637 50.7451 26.4955C50.3965 26.5597 50.1408 26.71 49.978 26.9463C49.8151 27.1827 49.7401 27.486 49.7528 27.8563L52.0184 27.4392ZM49.8346 28.4511C49.8943 28.7081 49.9759 28.9256 50.0795 29.1037C50.1826 29.2787 50.3023 29.4184 50.4385 29.5227C50.5777 29.6264 50.732 29.695 50.9015 29.7285C51.0733 29.7584 51.2575 29.7553 51.4541 29.7191C51.6418 29.6846 51.8003 29.6338 51.9297 29.5669C52.0585 29.497 52.1689 29.4273 52.2608 29.3581C52.3522 29.2858 52.4299 29.2222 52.4937 29.1673C52.5569 29.1095 52.6184 29.0751 52.678 29.0641C52.7554 29.0498 52.8205 29.0687 52.8732 29.1206L53.2107 29.4234C53.1222 29.5783 53.015 29.7151 52.889 29.8338C52.763 29.9524 52.625 30.0564 52.4751 30.1456C52.3247 30.2318 52.1668 30.3025 52.0014 30.3576C51.8365 30.4156 51.6736 30.4595 51.5128 30.4891C51.197 30.5473 50.8939 30.5492 50.6037 30.4948C50.3158 30.4369 50.0531 30.3236 49.8157 30.1548C49.5812 29.9854 49.3794 29.7593 49.2103 29.4762C49.0441 29.1927 48.9245 28.8528 48.8516 28.4566C48.7934 28.1408 48.7883 27.8368 48.8361 27.5447C48.8869 27.2519 48.986 26.9873 49.1334 26.7507C49.2838 26.5136 49.4809 26.3125 49.7246 26.1475C49.9708 25.979 50.2622 25.8637 50.5988 25.8017C50.8789 25.7502 51.1465 25.7486 51.4019 25.7971C51.6566 25.8426 51.8866 25.9373 52.0917 26.0812C52.2969 26.2252 52.4707 26.4165 52.6132 26.6551C52.7582 26.8902 52.8605 27.1702 52.9203 27.4949C52.9477 27.6438 52.9497 27.7466 52.9263 27.8033C52.9028 27.86 52.8479 27.8963 52.7615 27.9122L49.8346 28.4511Z" fill="black"/>
<path d="M59.1923 25.3375C59.5336 25.3636 59.8374 25.443 60.1037 25.5758C60.373 25.7088 60.5964 25.8854 60.774 26.1055C60.9546 26.3259 61.0866 26.5866 61.1699 26.8877C61.2532 27.1887 61.2809 27.522 61.2529 27.8875C61.225 28.2529 61.147 28.5781 61.0188 28.863C60.8907 29.1478 60.7205 29.387 60.5083 29.5804C60.2993 29.771 60.0516 29.9115 59.7652 30.002C59.4818 30.0927 59.1694 30.125 58.8281 30.0989C58.4838 30.0726 58.177 29.9929 57.9077 29.8599C57.6414 29.7272 57.4179 29.5506 57.2373 29.3302C57.0569 29.1068 56.9251 28.8446 56.8418 28.5435C56.7585 28.2424 56.7308 27.9092 56.7588 27.5437C56.7867 27.1783 56.8647 26.8531 56.9929 26.5682C57.121 26.2834 57.291 26.0457 57.5031 25.8554C57.7151 25.665 57.9628 25.5244 58.2462 25.4337C58.5326 25.3432 58.848 25.3111 59.1923 25.3375ZM58.8863 29.3378C59.3031 29.3697 59.6233 29.2545 59.8469 28.9921C60.0738 28.7269 60.2071 28.3346 60.2468 27.8151C60.2866 27.2956 60.2145 26.8875 60.0306 26.5909C59.8499 26.2916 59.5512 26.1259 59.1344 26.094C58.7116 26.0617 58.3866 26.1796 58.1595 26.4478C57.9327 26.713 57.7994 27.1054 57.7596 27.6248C57.7199 28.1443 57.792 28.5524 57.9759 28.849C58.16 29.1425 58.4635 29.3055 58.8863 29.3378Z" fill="black"/>
<path d="M63.3338 26.6024C63.4554 26.5262 63.5774 26.4611 63.6999 26.4069C63.826 26.3506 63.9552 26.3074 64.0873 26.2775C64.2194 26.2475 64.3556 26.2326 64.4959 26.2328C64.6363 26.2329 64.7844 26.2521 64.9403 26.2904C65.1874 26.3511 65.3935 26.4454 65.5586 26.5732C65.7266 26.7018 65.8555 26.8567 65.9451 27.0378C66.0377 27.2196 66.0904 27.4243 66.1031 27.652C66.1165 27.8768 66.0922 28.1156 66.0301 28.3686L65.3269 31.2324L64.3826 31.0005L65.0858 28.1368C65.1602 27.8338 65.1474 27.5811 65.0473 27.3787C64.9503 27.1771 64.759 27.0413 64.4737 26.9712C64.2619 26.9192 64.0529 26.9193 63.8466 26.9716C63.6434 27.0247 63.4417 27.1155 63.2417 27.2442L62.4367 30.5227L61.488 30.2898L62.5931 25.7889L63.1667 25.9298C63.2962 25.9616 63.3637 26.0421 63.3694 26.1714L63.3338 26.6024Z" fill="black"/>
<path d="M74.3044 30.3651L69.2026 34.3551C69.1398 34.4002 69.0777 34.4283 69.0163 34.4395C68.9575 34.4522 68.8857 34.4352 68.8007 34.3886L68.1673 34.0411L69.8079 32.8267L70.2293 28.1292L70.9742 28.5379C71.0459 28.5773 71.0909 28.6244 71.1091 28.6793C71.1314 28.733 71.1395 28.7876 71.1333 28.8429L70.8359 31.6805C70.8234 31.76 70.8082 31.838 70.7903 31.9146C70.7766 31.99 70.7601 32.0673 70.7408 32.1466C70.7999 32.0892 70.8583 32.0331 70.916 31.9784C70.9737 31.9236 71.034 31.8704 71.097 31.8185L73.2884 30.0253C73.3332 29.9877 73.3856 29.9646 73.4456 29.9561C73.5082 29.949 73.5661 29.96 73.6192 29.9892L74.3044 30.3651Z" fill="black"/>
<path d="M77.052 32.3134C77.3203 32.5259 77.5278 32.7617 77.6743 33.0207C77.8232 33.2815 77.9097 33.5529 77.9338 33.8347C77.9603 34.1184 77.9239 34.4084 77.8246 34.7045C77.7253 35.0007 77.5619 35.2924 77.3343 35.5798C77.1068 35.8671 76.8603 36.0931 76.5947 36.2576C76.3292 36.4221 76.0544 36.5252 75.7703 36.5668C75.4904 36.6079 75.2065 36.5859 74.9184 36.5008C74.6328 36.4175 74.3557 36.2697 74.0874 36.0572C73.8167 35.8428 73.6069 35.6052 73.458 35.3443C73.3115 35.0853 73.225 34.814 73.1985 34.5303C73.1739 34.2442 73.2112 33.953 73.3105 33.6569C73.4098 33.3607 73.5732 33.069 73.8008 32.7816C74.0283 32.4943 74.2748 32.2683 74.5403 32.1038C74.8059 31.9393 75.0797 31.8374 75.362 31.7981C75.6442 31.7589 75.9281 31.7809 76.2138 31.8642C76.5019 31.9493 76.7813 32.0991 77.052 32.3134ZM74.5613 35.4587C74.889 35.7182 75.2189 35.8018 75.551 35.7093C75.8874 35.6163 76.2173 35.3656 76.5407 34.9571C76.8642 34.5487 77.0326 34.1701 77.046 33.8214C77.0637 33.4722 76.9086 33.1678 76.5809 32.9083C76.2485 32.645 75.9131 32.5611 75.5749 32.6564C75.2385 32.7494 74.9086 33.0001 74.5851 33.4086C74.2617 33.817 74.0933 34.1956 74.0799 34.5443C74.0684 34.8907 74.2288 35.1955 74.5613 35.4587Z" fill="black"/>
<path d="M82.3752 37.6366L78.9259 40.732L78.5314 40.2924C78.4444 40.1955 78.435 40.092 78.5031 39.982L78.7758 39.6396C78.6344 39.6362 78.4958 39.6223 78.3598 39.5978C78.2259 39.5755 78.0959 39.5395 77.9699 39.4898C77.8439 39.4401 77.7219 39.3745 77.6041 39.2931C77.4882 39.2139 77.3777 39.1157 77.2725 38.9984C77.1026 38.8091 76.9844 38.6139 76.9181 38.413C76.8517 38.2121 76.8315 38.0104 76.8575 37.808C76.8854 37.6079 76.9572 37.4112 77.0728 37.218C77.1906 37.0227 77.3464 36.8381 77.5403 36.6641L79.735 34.6946L80.3875 35.4217L78.1928 37.3912C77.9606 37.5996 77.8278 37.8144 77.7943 38.0357C77.7629 38.2592 77.8454 38.4803 78.0416 38.699C78.1853 38.859 78.3549 38.9755 78.5504 39.0482C78.7502 39.1213 78.969 39.161 79.2068 39.1674L81.7227 36.9096L82.3752 37.6366Z" fill="black"/>
<path d="M83.0704 40.1034C83.3955 40.061 83.6845 40.0791 83.9375 40.1578C84.193 40.2347 84.4007 40.3928 84.5606 40.632C84.6162 40.7152 84.6583 40.7999 84.6869 40.8864C84.7181 40.9713 84.7342 41.0552 84.7352 41.1384L84.0854 41.4908C84.0358 41.5094 83.9946 41.5132 83.9619 41.5023C83.9333 41.4923 83.9072 41.4696 83.8836 41.4344C83.8584 41.3966 83.8285 41.3383 83.794 41.2593C83.7619 41.1787 83.7198 41.0994 83.6676 41.0213C83.5919 40.908 83.5082 40.8182 83.4165 40.752C83.3265 40.6882 83.2265 40.6422 83.1164 40.6137C83.008 40.5878 82.8908 40.5787 82.7648 40.5865C82.6388 40.5942 82.5027 40.6141 82.3566 40.6462L79.9617 42.2472L79.4188 41.4351L83.2717 38.8594L83.5873 39.3315C83.6446 39.4171 83.6678 39.4873 83.6569 39.5419C83.6486 39.5948 83.6096 39.6537 83.5399 39.7185L83.0704 40.1034Z" fill="black"/>
<path d="M86.5203 45.9597C86.6514 46.0181 86.7736 46.083 86.8869 46.1543C87.0041 46.2275 87.112 46.3105 87.2106 46.4034C87.3092 46.4962 87.3977 46.6009 87.4759 46.7174C87.5541 46.8339 87.6209 46.9675 87.6762 47.1182C87.7639 47.3571 87.8008 47.5807 87.7869 47.7891C87.774 48.0003 87.7176 48.1936 87.6174 48.3691C87.5183 48.5475 87.3778 48.7055 87.196 48.8432C87.0171 48.9799 86.8054 49.093 86.5608 49.1828L83.7925 50.1987L83.4575 49.2858L86.2258 48.27C86.5187 48.1625 86.7212 48.0108 86.8332 47.8148C86.9462 47.6216 86.9521 47.3872 86.8509 47.1113C86.7758 46.9066 86.6589 46.7333 86.5004 46.5914C86.3429 46.4524 86.1549 46.3358 85.9365 46.2417L82.7672 47.4048L82.4307 46.4877L86.7815 44.8911L86.985 45.4456C87.0309 45.5707 87.0018 45.6717 86.8978 45.7486L86.5203 45.9597Z" fill="black"/>
<path d="M87.3463 53.3481C87.5071 53.3178 87.6515 53.2661 87.7795 53.1927C87.911 53.1217 88.019 53.0321 88.1034 52.9238C88.1908 52.8149 88.2502 52.6881 88.2816 52.5435C88.3165 52.4014 88.3178 52.2439 88.2853 52.0713C88.2199 51.723 88.0687 51.4678 87.8317 51.3059C87.5948 51.1439 87.2912 51.0699 86.9209 51.084L87.3463 53.3481ZM86.3264 51.168C86.0696 51.2286 85.8524 51.311 85.6748 51.4153C85.5001 51.519 85.3609 51.6392 85.2571 51.7758C85.1539 51.9154 85.0858 52.07 85.053 52.2395C85.0236 52.4115 85.0274 52.5957 85.0643 52.7921C85.0996 52.9797 85.1509 53.138 85.2183 53.2671C85.2887 53.3957 85.3587 53.5058 85.4284 53.5975C85.501 53.6887 85.5648 53.7661 85.6199 53.8297C85.678 53.8927 85.7126 53.954 85.7238 54.0136C85.7384 54.091 85.7198 54.1561 85.6681 54.209L85.3665 54.5477C85.2113 54.4597 85.0741 54.353 84.955 54.2274C84.8358 54.1018 84.7314 53.9643 84.6416 53.8147C84.5549 53.6646 84.4836 53.5069 84.4279 53.3417C84.3692 53.177 84.3248 53.0143 84.2946 52.8536C84.2353 52.538 84.2323 52.235 84.2856 51.9445C84.3424 51.6564 84.4547 51.3934 84.6227 51.1553C84.7912 50.9202 85.0166 50.7176 85.299 50.5474C85.582 50.3802 85.9214 50.2594 86.3173 50.185C86.6329 50.1257 86.9369 50.1194 87.2292 50.1662C87.5221 50.2159 87.7871 50.3141 88.0242 50.4606C88.2619 50.6101 88.4637 50.8064 88.6296 51.0496C88.799 51.2951 88.9154 51.5861 88.9786 51.9225C89.0312 52.2023 89.0337 52.47 88.9862 52.7255C88.9416 52.9805 88.8477 53.2108 88.7045 53.4164C88.5613 53.6221 88.3707 53.7966 88.1326 53.94C87.898 54.0858 87.6184 54.1892 87.2939 54.2502C87.1451 54.2781 87.0423 54.2805 86.9855 54.2573C86.9288 54.234 86.8923 54.1793 86.876 54.0929L86.3264 51.168Z" fill="black"/>
<path d="M84.8958 59.4114L84.8754 58.4757C84.8738 58.3999 84.8921 58.339 84.9305 58.2927C84.969 58.2494 85.0121 58.2136 85.06 58.1853L86.7492 57.0805C86.6457 57.0555 86.5556 57.0211 86.4789 56.9773L85.0132 56.0412C84.964 56.009 84.9193 55.9721 84.879 55.9305C84.8388 55.892 84.8179 55.8394 84.8165 55.7728L84.7975 54.9006L87.2218 56.4521L89.4323 54.8632L89.4527 55.799C89.4543 55.8747 89.4434 55.9295 89.4199 55.9633C89.3995 56.0001 89.3669 56.0326 89.3221 56.0609L87.7096 57.1459C87.8101 57.171 87.9065 57.2113 87.9986 57.2668L89.3489 58.1236C89.4531 58.1819 89.5063 58.258 89.5084 58.3519L89.5279 59.2468L87.2911 57.7549L84.8958 59.4114Z" fill="black"/>
<path d="M84.5682 61.6726C84.6143 61.2907 84.7566 61.0088 84.9951 60.8271C85.2363 60.6487 85.5524 60.5831 85.9434 60.6302L88.6229 60.9534L88.6838 60.4481C88.6903 60.394 88.7125 60.3494 88.7503 60.3143C88.7911 60.2795 88.8461 60.2663 88.9152 60.2747L89.3077 60.322L89.3262 61.0794L90.6314 61.4519C90.6807 61.4731 90.7182 61.5035 90.7439 61.5433C90.7726 61.5833 90.7834 61.6334 90.7761 61.6936L90.7163 62.1898L89.2051 62.0075L89.0511 63.2841L88.3519 63.1998L88.5059 61.9232L85.8941 61.6082C85.7286 61.5883 85.5974 61.6136 85.5004 61.6843C85.4034 61.755 85.3468 61.858 85.3305 61.9933C85.3214 62.0685 85.3226 62.1343 85.3341 62.1906C85.3486 62.2472 85.3641 62.2964 85.3804 62.338C85.3998 62.38 85.4168 62.4156 85.4316 62.4449C85.449 62.4775 85.4561 62.5073 85.4528 62.5344C85.4463 62.5885 85.411 62.6285 85.3468 62.6543L84.8384 62.8859C84.7242 62.7196 84.6433 62.5298 84.5958 62.3166C84.5513 62.1038 84.5421 61.8891 84.5682 61.6726Z" fill="black"/>
<path d="M84.5282 67.4804C84.3159 67.5462 84.1474 67.6415 84.0229 67.7663C83.9002 67.8949 83.8043 68.0514 83.735 68.2358C83.6009 68.5931 83.627 68.92 83.8134 69.2164C83.9987 69.5157 84.3494 69.7622 84.8655 69.956C85.1321 70.0561 85.3675 70.1186 85.5717 70.1435C85.7787 70.1694 85.9577 70.1622 86.1088 70.1219C86.2598 70.0815 86.3852 70.0105 86.4849 69.9088C86.5845 69.8071 86.6631 69.6796 86.7206 69.5265C86.8079 69.294 86.8324 69.0734 86.7942 68.865C86.7578 68.6604 86.6731 68.4507 86.5403 68.2358L84.5282 67.4804ZM87.1661 68.4173C87.3107 68.6787 87.405 68.9487 87.4493 69.2274C87.4924 69.5089 87.4565 69.8028 87.3415 70.109C87.2499 70.3529 87.1173 70.5555 86.9435 70.7167C86.7725 70.879 86.5669 70.996 86.3265 71.0675C86.0861 71.139 85.8125 71.1609 85.5059 71.1331C85.201 71.1092 84.8699 71.0302 84.5126 70.8961C84.1921 70.7758 83.9095 70.6195 83.6645 70.4273C83.4214 70.2389 83.2281 70.0256 83.0846 69.7873C82.9439 69.55 82.8586 69.2948 82.8286 69.0214C82.8014 68.7491 82.8421 68.4683 82.9507 68.1791C83.0465 67.9239 83.1691 67.7224 83.3184 67.5746C83.4666 67.4296 83.6402 67.312 83.8391 67.2217L81.9973 66.5302L82.3406 65.6156L88.1215 67.7859L87.9139 68.3389C87.867 68.4637 87.7791 68.5213 87.65 68.5116L87.1661 68.4173Z" fill="black"/>
<path d="M84.9006 73.1658C85.0882 73.4346 85.2056 73.6994 85.2525 73.9601C85.3022 74.2223 85.2578 74.4795 85.1194 74.7318C85.0713 74.8194 85.0155 74.8959 84.952 74.9613C84.8911 75.0281 84.8241 75.0811 84.7507 75.1204L84.1382 74.7065C84.0988 74.6711 84.0765 74.6364 84.071 74.6023C84.0667 74.5723 84.0748 74.5387 84.0952 74.5015C84.117 74.4617 84.155 74.4083 84.2091 74.3412C84.2658 74.2756 84.3167 74.2016 84.3619 74.1193C84.4275 73.9998 84.4685 73.8841 84.485 73.7722C84.5 73.663 84.4947 73.5529 84.4691 73.4422C84.442 73.334 84.396 73.2259 84.331 73.1176C84.266 73.0094 84.1855 72.8979 84.0896 72.7831L81.5641 71.3974L82.034 70.541L86.0971 72.7702L85.8239 73.2682C85.7744 73.3585 85.7229 73.4114 85.6694 73.427C85.6186 73.444 85.5484 73.4366 85.4588 73.4047L84.9006 73.1658Z" fill="black"/>
<path d="M83.1039 77.7378C82.8987 78.0118 82.6686 78.2255 82.4136 78.3789C82.1569 78.5347 81.8879 78.6285 81.6069 78.6602C81.324 78.6943 81.0331 78.6657 80.7344 78.5744C80.4357 78.4831 80.1397 78.3276 79.8463 78.1078C79.5529 77.8881 79.3205 77.6477 79.1489 77.3867C78.9772 77.1257 78.8668 76.8538 78.8176 76.5709C78.7689 76.2923 78.7833 76.0078 78.8607 75.7176C78.9362 75.4298 79.0766 75.1489 79.2818 74.8749C79.4888 74.5985 79.7207 74.3824 79.9775 74.2266C80.2324 74.0731 80.5014 73.9794 80.7843 73.9453C81.0696 73.913 81.3616 73.9425 81.6603 74.0338C81.9591 74.1251 82.2551 74.2806 82.5485 74.5003C82.8418 74.7201 83.0743 74.9604 83.2459 75.2214C83.4175 75.4824 83.5267 75.7535 83.5735 76.0345C83.6204 76.3156 83.606 76.6001 83.5305 76.8879C83.4531 77.1781 83.3109 77.4614 83.1039 77.7378ZM79.8927 75.3326C79.6421 75.6671 79.5675 75.9992 79.6689 76.3287C79.7709 76.6624 80.0304 76.9855 80.4474 77.2978C80.8644 77.6101 81.2474 77.7683 81.5963 77.7724C81.9459 77.7806 82.246 77.6175 82.4966 77.2829C82.7508 76.9435 82.8257 76.606 82.7213 76.2704C82.6193 75.9367 82.3598 75.6136 81.9428 75.3013C81.5258 74.989 81.1429 74.8308 80.7939 74.8267C80.4474 74.8245 80.147 74.9931 79.8927 75.3326Z" fill="black"/>
<path d="M80.122 81.1178L76.5957 77.7512C76.4554 77.6173 76.3418 77.4732 76.2546 77.3188C76.1653 77.1623 76.1133 76.9996 76.0987 76.8307C76.0841 76.6618 76.1122 76.4876 76.183 76.3081C76.2518 76.1309 76.3729 75.9513 76.5465 75.7695C76.6198 75.6928 76.6911 75.629 76.7606 75.5781C76.8302 75.5272 76.9051 75.4794 76.9855 75.4347L77.3449 75.8281C77.3824 75.8765 77.3899 75.9192 77.3672 75.9561C77.3465 75.9909 77.2965 76.0499 77.217 76.1332C77.058 76.2997 76.9844 76.4513 76.9961 76.5882C77.0036 76.7251 77.095 76.8773 77.2702 77.0446L80.7965 80.4112L80.122 81.1178ZM81.0244 82.1992C80.9608 82.1386 80.9131 82.0679 80.8813 81.9872C80.8473 81.9087 80.8293 81.8267 80.8273 81.741C80.8275 81.6575 80.8417 81.5746 80.8698 81.4926C80.9001 81.4126 80.9466 81.3398 81.0093 81.274C81.07 81.2105 81.1396 81.1617 81.2181 81.1278C81.2966 81.0981 81.3777 81.0812 81.4611 81.0772C81.5447 81.0774 81.6265 81.0926 81.7064 81.1229C81.7864 81.1532 81.8582 81.1987 81.9217 81.2593C81.9874 81.3221 82.0373 81.3927 82.0712 81.4712C82.1052 81.5497 82.1231 81.6296 82.125 81.711C82.127 81.7966 82.1139 81.8783 82.0857 81.9561C82.0576 82.0382 82.0132 82.111 81.9525 82.1745C81.8898 82.2402 81.8181 82.289 81.7374 82.3209C81.6589 82.3549 81.5768 82.3728 81.4912 82.3748C81.4077 82.3789 81.326 82.3658 81.246 82.3355C81.164 82.3074 81.0901 82.262 81.0244 82.1992Z" fill="black"/>
<path d="M75.662 82.708C75.766 82.8342 75.881 82.9357 76.007 83.0125C76.1325 83.0935 76.2631 83.1448 76.3988 83.1666C76.5363 83.1906 76.676 83.1815 76.8178 83.1393C76.9592 83.1013 77.0977 83.0265 77.2333 82.9148C77.5069 82.6895 77.6574 82.434 77.6851 82.1483C77.7127 81.8626 77.631 81.561 77.4401 81.2434L75.662 82.708ZM77.0798 80.7631C76.9029 80.5674 76.726 80.4169 76.549 80.3115C76.3738 80.2085 76.2014 80.1445 76.0317 80.1195C75.8596 80.0964 75.6914 80.1113 75.5271 80.1643C75.3623 80.2215 75.2027 80.3137 75.0484 80.4408C74.9011 80.5621 74.7872 80.6835 74.7066 80.8048C74.6279 80.9284 74.5652 81.0429 74.5184 81.1481C74.4736 81.2557 74.4366 81.3489 74.4075 81.4279C74.3802 81.5092 74.3432 81.5691 74.2965 81.6076C74.2357 81.6577 74.1697 81.6728 74.0984 81.653L73.6563 81.5521C73.6585 81.3737 73.6858 81.2021 73.7384 81.0372C73.7909 80.8722 73.861 80.7144 73.9488 80.5636C74.0384 80.4152 74.1422 80.2768 74.2601 80.1483C74.376 80.0175 74.4971 79.9001 74.6234 79.7961C74.8712 79.592 75.1352 79.4432 75.4154 79.3498C75.6951 79.2606 75.9798 79.2322 76.2693 79.2645C76.5565 79.2987 76.8427 79.3985 77.128 79.5638C77.411 79.731 77.6805 79.9701 77.9366 80.2811C78.1408 80.5289 78.2928 80.7922 78.3929 81.0709C78.4905 81.3514 78.5324 81.6309 78.5184 81.9093C78.502 82.1896 78.4274 82.4611 78.2944 82.7237C78.161 82.9905 77.9622 83.2327 77.698 83.4504C77.4782 83.6314 77.2449 83.7627 76.9982 83.8443C76.7533 83.9282 76.5063 83.957 76.2571 83.9308C76.0078 83.9045 75.763 83.8217 75.5226 83.6822C75.2817 83.547 75.0563 83.352 74.8464 83.0972C74.7501 82.9802 74.6985 82.8913 74.6915 82.8304C74.6844 82.7695 74.7148 82.7111 74.7826 82.6552L77.0798 80.7631Z" fill="black"/>
<path d="M71.4695 86.4798C71.4756 86.4305 71.4851 86.3898 71.4978 86.3577C71.5105 86.3256 71.5391 86.2965 71.5835 86.2704C71.6278 86.2443 71.684 86.2323 71.7521 86.2344C71.8175 86.238 71.8949 86.2382 71.9843 86.2347C72.0726 86.2355 72.173 86.2238 72.2854 86.1998C72.3978 86.1758 72.5245 86.1223 72.6654 86.0393C72.8481 85.9317 72.9895 85.8046 73.0894 85.6579C73.1867 85.5127 73.2462 85.3511 73.2679 85.1731C73.2886 84.9992 73.2709 84.811 73.2149 84.6085C73.1579 84.4101 73.0656 84.2026 72.938 83.9859C72.8058 83.7614 72.6635 83.5763 72.5109 83.4307C72.3583 83.285 72.201 83.179 72.0389 83.1127C71.8743 83.048 71.7082 83.0227 71.5409 83.0369C71.3708 83.0526 71.2036 83.1089 71.0392 83.2057C70.8773 83.301 70.757 83.3982 70.6783 83.4973C70.5996 83.5964 70.5401 83.6894 70.4999 83.7764C70.4597 83.8633 70.4276 83.9402 70.4037 84.007C70.3771 84.0754 70.3365 84.1257 70.2816 84.158C70.2138 84.1979 70.1462 84.2026 70.0789 84.1719L69.658 84.0032C69.6854 83.8289 69.734 83.6667 69.8038 83.5166C69.8736 83.3665 69.9584 83.2269 70.0582 83.0979C70.1595 82.9714 70.2745 82.8563 70.4032 82.7524C70.5303 82.6459 70.6656 82.5504 70.8092 82.4659C71.0571 82.3199 71.3164 82.2288 71.5868 82.1926C71.8562 82.1605 72.1233 82.1843 72.3881 82.2639C72.6518 82.3476 72.9052 82.4884 73.1482 82.6863C73.3902 82.8883 73.6073 83.1524 73.7994 83.4787C73.9731 83.7737 74.0919 84.071 74.1559 84.3708C74.2215 84.6732 74.2284 84.9626 74.1768 85.2391C74.1225 85.5171 74.0066 85.7769 73.829 86.0186C73.653 86.2628 73.4096 86.4764 73.099 86.6593C72.8093 86.8299 72.5271 86.9328 72.2525 86.9679C71.9753 87.0046 71.6999 86.9875 71.4262 86.9167L71.4695 86.4798Z" fill="black"/>
<path d="M67.4521 84.1256C67.8064 83.9758 68.1217 83.9591 68.398 84.0758C68.6727 84.1964 68.8867 84.438 69.0401 84.8007L70.0916 87.2864L70.5603 87.0881C70.6105 87.0669 70.6603 87.0639 70.7095 87.0792C70.7599 87.0974 70.7987 87.1385 70.8259 87.2027L70.9799 87.5668L70.3319 87.9593L70.6574 89.2769C70.6636 89.3303 70.6558 89.378 70.6341 89.42C70.6136 89.4649 70.5755 89.4991 70.5197 89.5227L70.0594 89.7174L69.4663 88.3156L68.2821 88.8166L68.0077 88.1679L69.1919 87.667L68.167 85.2441C68.1021 85.0906 68.0148 84.9894 67.9053 84.9404C67.7957 84.8913 67.6782 84.8933 67.5527 84.9465C67.4829 84.976 67.4265 85.0097 67.3833 85.0477C67.3414 85.0885 67.3064 85.1263 67.2784 85.1611C67.2516 85.1988 67.2292 85.2313 67.2111 85.2587C67.1915 85.29 67.1691 85.311 67.144 85.3216C67.0938 85.3428 67.0415 85.3321 66.9873 85.2892L66.5336 84.9632C66.6211 84.7814 66.7456 84.6169 66.907 84.4697C67.0695 84.3253 67.2512 84.2106 67.4521 84.1256Z" fill="black"/>
<path d="M66.1048 85.3277C66.1313 85.4114 66.1416 85.494 66.1357 85.5753C66.1277 85.6605 66.1065 85.7387 66.0719 85.8101C66.0344 85.8823 65.9847 85.9458 65.9225 86.0004C65.8575 86.056 65.7832 86.0971 65.6995 86.1236C65.6157 86.1502 65.5327 86.159 65.4505 86.1502C65.3653 86.1422 65.2866 86.1195 65.2144 86.0821C65.1421 86.0446 65.0782 85.9934 65.0226 85.9284C64.9679 85.8663 64.9273 85.7934 64.9008 85.7096C64.8733 85.623 64.864 85.5386 64.8729 85.4563C64.8817 85.3741 64.9049 85.2968 64.9423 85.2245C64.9798 85.1523 65.0315 85.0898 65.0974 85.0371C65.1595 84.9825 65.2324 84.9419 65.3161 84.9153C65.3999 84.8887 65.4843 84.8794 65.5695 84.8874C65.6508 84.8934 65.7276 84.9151 65.7999 84.9525C65.8692 84.9909 65.9313 85.0411 65.9859 85.1032C66.0377 85.1663 66.0773 85.2411 66.1048 85.3277Z" fill="black"/>
<path d="M55.5978 52.9932L61.3206 52.9932L61.3206 58.716" stroke="#111315" stroke-width="1.5" stroke-miterlimit="10" stroke-linecap="round" stroke-linejoin="round"/>
<path d="M53.3068 61.0071L61.2405 53.0733" stroke="#111315" stroke-width="1.5" stroke-miterlimit="10" stroke-linecap="round" stroke-linejoin="round"/>
</svg>
